<mxfile host="app.diagrams.net" modified="2023-10-09T13:35:19.329Z" agent="Mozilla/5.0 (Windows NT 10.0; Win64; x64; rv:109.0) Gecko/20100101 Firefox/118.0" etag="GF6m08B-efOOo5nQn4pY" version="22.0.4" type="github">
  <diagram name="Page-1" id="c4acf3e9-155e-7222-9cf6-157b1a14988f">
    <mxGraphModel dx="1889" dy="1661" grid="1" gridSize="10" guides="1" tooltips="1" connect="1" arrows="1" fold="1" page="1" pageScale="1" pageWidth="850" pageHeight="1100" background="none" math="0" shadow="0">
      <root>
        <mxCell id="0" />
        <mxCell id="1" parent="0" />
        <mxCell id="17acba5748e5396b-1" value="frame" style="shape=umlFrame;whiteSpace=wrap;html=1;rounded=0;shadow=0;comic=0;labelBackgroundColor=none;strokeWidth=1;fontFamily=Verdana;fontSize=10;align=center;" parent="1" vertex="1">
          <mxGeometry x="-110" y="-40" width="820" height="1060" as="geometry" />
        </mxCell>
        <mxCell id="5d2195bd80daf111-18" value="&lt;p style=&quot;margin:0px;margin-top:4px;text-align:center;&quot;&gt;&lt;b&gt;Rectangle&lt;/b&gt;&lt;br&gt;&lt;/p&gt;&lt;hr size=&quot;1&quot;&gt;&lt;p style=&quot;margin:0px;margin-left:4px;&quot;&gt;+ &lt;b&gt;&lt;i&gt;width&lt;/i&gt;&lt;/b&gt;: float&lt;br&gt;+ &lt;b&gt;&lt;i&gt;height&lt;/i&gt;&lt;/b&gt;: float&lt;br&gt;&lt;/p&gt;&lt;hr size=&quot;1&quot;&gt;&lt;p style=&quot;margin:0px;margin-left:4px;&quot;&gt;+ &lt;b&gt;&lt;i&gt;__repr__(): &lt;/i&gt;&lt;/b&gt;string&lt;br&gt;+ &lt;b&gt;&lt;i&gt;__str__(): &lt;/i&gt;&lt;/b&gt;string&lt;/p&gt;&lt;p style=&quot;margin:0px;margin-left:4px;&quot;&gt;+ &lt;b&gt;&lt;i&gt;get_perimeter()&lt;/i&gt;&lt;/b&gt;: float&lt;/p&gt;&lt;p style=&quot;margin:0px;margin-left:4px;&quot;&gt;+ &lt;b&gt;&lt;i&gt;get_area()&lt;/i&gt;&lt;/b&gt;: float&lt;/p&gt;&lt;p style=&quot;margin:0px;margin-left:4px;&quot;&gt;+ &lt;b&gt;&lt;i&gt;is_square()&lt;/i&gt;&lt;/b&gt;: bool&lt;br&gt;&lt;/p&gt;" style="verticalAlign=top;align=left;overflow=fill;fontSize=12;fontFamily=Helvetica;html=1;rounded=0;shadow=0;comic=0;labelBackgroundColor=none;strokeWidth=1" parent="1" vertex="1">
          <mxGeometry y="360" width="200" height="170" as="geometry" />
        </mxCell>
        <mxCell id="H4dJEg-eO4Z0APqnT_hP-1" value="&lt;p style=&quot;margin:0px;margin-top:4px;text-align:center;&quot;&gt;&lt;b&gt;Shape&lt;/b&gt;&lt;br&gt;&lt;/p&gt;&lt;hr size=&quot;1&quot;&gt;&lt;p style=&quot;margin:0px;margin-left:4px;&quot;&gt;+ &lt;b&gt;&lt;i&gt;name&lt;/i&gt;&lt;/b&gt;: string&lt;br&gt;+ &lt;b&gt;&lt;i&gt;mitt_x&lt;/i&gt;&lt;/b&gt;: float&lt;/p&gt;&lt;p style=&quot;margin:0px;margin-left:4px;&quot;&gt;+ &lt;b&gt;&lt;i&gt;mitt_y&lt;/i&gt;&lt;/b&gt;: float&lt;/p&gt;&lt;hr size=&quot;1&quot;&gt;&lt;p style=&quot;margin:0px;margin-left:4px;&quot;&gt;+ &lt;b&gt;&lt;i&gt;__repr__(): &lt;/i&gt;&lt;/b&gt;string&lt;br&gt;+ &lt;b&gt;&lt;i&gt;__str__(): &lt;/i&gt;&lt;/b&gt;string&lt;/p&gt;&lt;p style=&quot;margin:0px;margin-left:4px;&quot;&gt;+ &lt;b&gt;&lt;i&gt;__eq__()&lt;/i&gt;&lt;/b&gt;: bool&lt;/p&gt;&lt;p style=&quot;margin:0px;margin-left:4px;&quot;&gt;+&lt;b&gt;&lt;i&gt; __lt__()&lt;/i&gt;&lt;/b&gt;: bool&lt;/p&gt;&lt;p style=&quot;margin:0px;margin-left:4px;&quot;&gt;+ &lt;b&gt;&lt;i&gt;__gt__()&lt;/i&gt;&lt;/b&gt;: bool&lt;/p&gt;&lt;p style=&quot;margin:0px;margin-left:4px;&quot;&gt;+ &lt;b&gt;&lt;i&gt;__le__()&lt;/i&gt;&lt;/b&gt;: bool&lt;/p&gt;&lt;p style=&quot;margin:0px;margin-left:4px;&quot;&gt;+ &lt;b&gt;&lt;i&gt;__ge__()&lt;/i&gt;&lt;/b&gt;: bool&lt;/p&gt;&lt;p style=&quot;margin:0px;margin-left:4px;&quot;&gt;+ &lt;b&gt;&lt;i&gt;move()&lt;/i&gt;&lt;/b&gt;:&lt;/p&gt;&lt;p style=&quot;margin:0px;margin-left:4px;&quot;&gt;+ &lt;b&gt;&lt;i&gt;draw()&lt;/i&gt;&lt;/b&gt;:&lt;/p&gt;&lt;p style=&quot;margin:0px;margin-left:4px;&quot;&gt;+ &lt;b&gt;&lt;i&gt;is_in()&lt;/i&gt;&lt;/b&gt;: bool&lt;br&gt;&lt;/p&gt;&lt;p style=&quot;margin:0px;margin-left:4px;&quot;&gt;&lt;br&gt;&lt;/p&gt;&lt;p style=&quot;margin:0px;margin-left:4px;&quot;&gt;&lt;br&gt;&lt;/p&gt;&lt;p style=&quot;margin:0px;margin-left:4px;&quot;&gt;&lt;br&gt;&lt;/p&gt;" style="verticalAlign=top;align=left;overflow=fill;fontSize=12;fontFamily=Helvetica;html=1;rounded=0;shadow=0;comic=0;labelBackgroundColor=none;strokeWidth=1" vertex="1" parent="1">
          <mxGeometry x="190" y="30" width="230" height="260" as="geometry" />
        </mxCell>
        <mxCell id="H4dJEg-eO4Z0APqnT_hP-2" value="&lt;p style=&quot;margin:0px;margin-top:4px;text-align:center;&quot;&gt;&lt;b&gt;Circle&lt;/b&gt;&lt;br&gt;&lt;/p&gt;&lt;hr size=&quot;1&quot;&gt;&lt;p style=&quot;margin:0px;margin-left:4px;&quot;&gt;+ &lt;b&gt;&lt;i&gt;radius&lt;/i&gt;&lt;/b&gt;: float&lt;br&gt;&lt;br&gt;&lt;/p&gt;&lt;hr size=&quot;1&quot;&gt;&lt;p style=&quot;margin:0px;margin-left:4px;&quot;&gt;+ &lt;b&gt;&lt;i&gt;__repr__(): &lt;/i&gt;&lt;/b&gt;string&lt;br&gt;+ &lt;b&gt;&lt;i&gt;__str__(): &lt;/i&gt;&lt;/b&gt;string&lt;/p&gt;&lt;p style=&quot;margin:0px;margin-left:4px;&quot;&gt;+ &lt;b&gt;&lt;i&gt;get_perimeter()&lt;/i&gt;&lt;/b&gt;: float&lt;/p&gt;&lt;div&gt;&amp;nbsp;+ &lt;b&gt;&lt;i&gt;get_area()&lt;/i&gt;&lt;/b&gt;: float&lt;/div&gt;&lt;div&gt;&amp;nbsp;+ &lt;b&gt;&lt;i&gt;is_unit_circle()&lt;/i&gt;&lt;/b&gt;: bool&lt;br&gt;&lt;/div&gt;&lt;p style=&quot;margin:0px;margin-left:4px;&quot;&gt;&lt;/p&gt;" style="verticalAlign=top;align=left;overflow=fill;fontSize=12;fontFamily=Helvetica;html=1;rounded=0;shadow=0;comic=0;labelBackgroundColor=none;strokeWidth=1" vertex="1" parent="1">
          <mxGeometry x="400" y="360" width="190" height="170" as="geometry" />
        </mxCell>
        <mxCell id="H4dJEg-eO4Z0APqnT_hP-6" value="" style="endArrow=classic;html=1;rounded=0;entryX=0;entryY=1;entryDx=0;entryDy=0;exitX=0.5;exitY=0;exitDx=0;exitDy=0;" edge="1" parent="1" source="5d2195bd80daf111-18" target="H4dJEg-eO4Z0APqnT_hP-1">
          <mxGeometry width="50" height="50" relative="1" as="geometry">
            <mxPoint x="100" y="240" as="sourcePoint" />
            <mxPoint x="150" y="190" as="targetPoint" />
          </mxGeometry>
        </mxCell>
        <mxCell id="H4dJEg-eO4Z0APqnT_hP-7" value="" style="endArrow=classic;html=1;rounded=0;entryX=1;entryY=1;entryDx=0;entryDy=0;exitX=0.421;exitY=-0.007;exitDx=0;exitDy=0;exitPerimeter=0;" edge="1" parent="1" source="H4dJEg-eO4Z0APqnT_hP-2" target="H4dJEg-eO4Z0APqnT_hP-1">
          <mxGeometry width="50" height="50" relative="1" as="geometry">
            <mxPoint x="440" y="240" as="sourcePoint" />
            <mxPoint x="490" y="190" as="targetPoint" />
          </mxGeometry>
        </mxCell>
      </root>
    </mxGraphModel>
  </diagram>
</mxfile>
